<?xml version="1.0" encoding="utf-8"?>
<!-- Generator: Adobe Illustrator 19.1.0, SVG Export Plug-In . SVG Version: 6.00 Build 0)  -->
<svg version="1.1" id="Layer_1" xmlns="http://www.w3.org/2000/svg" xmlns:xlink="http://www.w3.org/1999/xlink" x="0px" y="0px"
	 viewBox="0 0 151.4 213.07" enable-background="new 0 0 151.4 213.07" xml:space="preserve">
<g>
	<path fill="#D5652B" d="M146.14,36.53L80.44,1.19C78.96,0.4,77.33,0,75.7,0s-3.26,0.4-4.74,1.19L5.26,36.53
		C2.02,38.27,0,41.65,0,45.33V116c0,3.68,2.02,7.06,5.26,8.81l65.7,35.33c1.48,0.8,3.11,1.19,4.74,1.19s3.26-0.4,4.74-1.19
		l65.7-35.33c3.24-1.74,5.26-5.13,5.26-8.81V45.33C151.4,41.65,149.38,38.27,146.14,36.53z M141.4,114.8c0,0.74-0.4,1.41-1.05,1.76
		l-63.7,34.26c-0.59,0.32-1.3,0.32-1.89,0l-63.7-34.26c-0.65-0.35-1.05-1.03-1.05-1.76V46.53c0-0.74,0.4-1.41,1.05-1.76l63.7-34.26
		c0.59-0.32,1.3-0.32,1.89,0l63.7,34.26c0.65,0.35,1.05,1.03,1.05,1.76V114.8z"/>
	<path fill="#D5652B" d="M27.21,47.79l48.01,25.37c0.3,0.16,0.66,0.15,0.96-0.01l48.28-27.32c0.69-0.39,0.67-1.39-0.03-1.76
		L77.17,19.41c-0.29-0.15-0.65-0.15-0.94,0.01L27.2,46.03C26.5,46.41,26.51,47.42,27.21,47.79z"/>
	<path fill="#BE432B" d="M125.12,54.64l-48.82,28c-0.3,0.17-0.67,0.18-0.98,0.01L49.15,68.26c-0.47-0.26-1.06-0.1-1.34,0.36
		l-25.97,43.16c-0.29,0.49-0.12,1.12,0.38,1.39l50.5,27.55c0.47,0.25,1.05,0.1,1.33-0.35l52.41-84.33
		C127.02,55.15,126.02,54.12,125.12,54.64z"/>
	<path fill="#D5652B" d="M126.86,114.04l-20.73-10.7c-0.46-0.24-1.03-0.08-1.31,0.36l-20.06,32.32c-0.54,0.87,0.42,1.89,1.32,1.41
		l40.79-21.62C127.59,115.43,127.58,114.41,126.86,114.04z"/>
	<path fill="#2BADC0" d="M9.66,196.78l11.4-17.29h-7l1.33-8.14h20.35l-11.17,18.43l7.7-0.14l-1.33,7.14H9.66z"/>
	<path fill="#2BADC0" d="M35.34,171.36h9.06c-0.14,0.91,0.76,15.74,0.76,15.74s5.83-14.97,6.07-15.74h8.13
		c-0.86,1.15-11.6,25.43-11.6,25.43h-9.18C38.58,196.78,35.64,172.37,35.34,171.36z"/>
	<path fill="#2BADC0" d="M141.67,189.56l1.71,4.43c-2.13,1.38-3.02,1.78-5.4,2.75c-2.69,1.07-4.51,1.43-6.78,1.43
		c-7.1,0-9.85-6.7-7.71-14.95c2.15-8.3,8.73-13.24,15.93-13.24c4.24,0,6.68,1.43,7.74,4.38c0.84,2.29,0.76,4.48-0.28,8.5
		c-0.28,1.07-0.36,1.37-0.67,2.19c-1.7-0.1-14.31-0.05-14.31-0.05h-0.64c-0.76,3.11,0.24,6.91,2.9,6.91
		C136.14,191.9,138.99,190.99,141.67,189.56z M139.88,180.01c0.65-2.9,0-4.38-1.92-4.38c-2.02,0-4.65,1.48-5.55,4.38
		C133.26,179.96,139.06,179.96,139.88,180.01z"/>
	<path fill="#2BADC0" d="M74.63,189.56l1.71,4.43c-2.13,1.38-3.02,1.78-5.4,2.75c-2.69,1.07-4.51,1.43-6.78,1.43
		c-7.1,0-9.85-6.7-7.71-14.95c2.15-8.3,8.73-13.24,15.93-13.24c4.24,0,6.68,1.43,7.74,4.38c0.84,2.29,0.76,4.48-0.28,8.5
		c-0.28,1.07-0.36,1.37-0.67,2.19c-1.7-0.1-14.31-0.05-14.31-0.05h-0.64c-0.76,3.11,0.24,6.91,2.9,6.91
		C69.1,191.9,71.94,190.99,74.63,189.56z M72.84,180.01c0.65-2.9,0-4.38-1.92-4.38c-2.02,0-4.65,1.48-5.55,4.38
		C66.22,179.96,72.01,179.96,72.84,180.01z"/>
	<path fill="#2BADC0" d="M84.51,171.36h7.9l-0.62,4.03c2.49-2.88,5.2-4.46,7.87-4.61l-1.22,7.92c-0.36-0.05-0.5-0.1-0.77-0.1
		c-2.56,0-4.61,0.96-6.51,3.02c0,0-1.77,14.05-1.75,15.15h-8.5C80.89,196.78,84.52,172.46,84.51,171.36z"/>
	<path fill="#2BADC0" d="M97.65,197.81l2.24-6.57c2.01,0.91,4.76,1.42,7.44,1.42c1.97,0,3.19-0.79,3.31-2.21
		c0.08-1.02-0.57-1.7-2.11-2.26l-2.18-0.79c-4.31-1.59-6.62-4.76-6.31-8.43c0.45-5.43,5.28-8.77,12.62-8.77
		c2.79,0,5.51,0.34,8.29,1.13l-2.1,6.17c-2.02-0.68-4.35-1.02-6.27-1.02c-1.64,0-2.63,0.68-2.73,1.87c-0.08,0.96,0.48,1.47,2.4,2.15
		c4.04,1.47,4.99,1.98,6.4,3.45c1.41,1.53,2.07,3.45,1.9,5.55c-0.49,5.94-5.73,9.68-13.57,9.68
		C103.73,199.17,100.42,198.71,97.65,197.81z"/>
	<path fill="#656263" d="M9.66,204.89h1.3c-0.06,0.31-0.09,0.75-0.09,1.22v5.61c0,0.46,0.03,0.89,0.09,1.2h-1.3
		c0.05-0.25,0.09-0.75,0.09-1.2v-5.61C9.75,205.65,9.71,205.14,9.66,204.89z"/>
	<path fill="#656263" d="M13.56,204.89h1.59l4.53,6.95v-5.73c0-0.46-0.05-0.9-0.09-1.22h1.14c-0.06,0.26-0.09,0.75-0.09,1.22v6.81
		h-1.36l-4.67-7.11v5.91c0,0.47,0.05,0.95,0.11,1.2h-1.15c0.06-0.25,0.09-0.75,0.09-1.2v-5.61
		C13.65,205.65,13.62,205.14,13.56,204.89z"/>
	<path fill="#656263" d="M22.51,212.75l0.24-0.87c0.64,0.35,1.17,0.47,2,0.47c1.36,0,2.3-0.6,2.3-1.49c0-0.48-0.32-0.93-0.88-1.24
		c-0.29-0.14-0.64-0.31-1.06-0.49c-1.93-0.82-2.49-1.34-2.49-2.29c0-1.26,1.29-2.14,3.11-2.14c0.61,0,1.15,0.07,1.73,0.24
		l-0.24,0.83c-0.5-0.26-0.92-0.37-1.49-0.37c-1.14,0-1.99,0.55-1.99,1.29c0,0.61,0.44,0.96,1.93,1.6c1.41,0.6,1.85,0.88,2.21,1.4
		c0.2,0.29,0.29,0.61,0.29,0.97c0,1.44-1.38,2.42-3.43,2.42C24.01,213.07,23.29,212.98,22.51,212.75z"/>
	<path fill="#656263" d="M30.04,204.89h2.36c1.12,0,1.65,0.07,2.17,0.3c0.74,0.31,1.15,0.95,1.15,1.77c0,0.83-0.44,1.53-1.2,1.87
		c-0.62,0.28-1.3,0.38-2.44,0.38h-0.83v2.49c0,0.47,0.03,0.9,0.09,1.22h-1.3c0.05-0.25,0.09-0.75,0.09-1.22v-5.61
		C30.13,205.65,30.09,205.14,30.04,204.89z M31.26,208.54h0.88c0.91,0,1.39-0.1,1.8-0.35c0.42-0.26,0.64-0.66,0.64-1.19
		c0-1.08-0.62-1.44-2.52-1.44c-0.18,0-0.41,0.01-0.7,0.01h-0.11V208.54z"/>
	<path fill="#656263" d="M37.28,204.89h1.3c-0.06,0.31-0.09,0.75-0.09,1.22v5.61c0,0.46,0.03,0.89,0.09,1.2h-1.3
		c0.05-0.25,0.09-0.75,0.09-1.2v-5.61C37.37,205.65,37.32,205.14,37.28,204.89z"/>
	<path fill="#656263" d="M41.29,204.89h2.27c2.23,0,3.38,0.66,3.38,1.93c0,0.93-0.76,1.63-2.06,1.87c0.95,0.12,1.29,0.45,1.77,1.71
		l0.52,1.38l0.12,0.26l0.12,0.35c0.08,0.18,0.12,0.29,0.26,0.53h-1.32c0-0.14-0.01-0.18-0.08-0.36l-0.09-0.28l-0.11-0.29l-0.49-1.35
		c-0.3-0.81-0.5-1.13-0.8-1.34c-0.3-0.2-0.73-0.29-1.44-0.29h-0.85v2.68c0,0.47,0.03,0.9,0.09,1.22h-1.3
		c0.05-0.25,0.09-0.75,0.09-1.22v-5.61C41.39,205.65,41.34,205.14,41.29,204.89z M42.51,208.34h1.06c1.42,0,2.23-0.53,2.23-1.46
		c0-1-0.64-1.34-2.53-1.34c-0.2,0-0.41,0-0.62,0.01h-0.14V208.34z"/>
	<path fill="#656263" d="M49.35,204.89h4.97v0.73c-0.21-0.04-0.61-0.05-1.14-0.05h-2.62v2.77h2.49c0.06,0,0.18,0,0.36-0.01
		c0.14,0,0.23,0,0.26,0c0.17-0.01,0.21-0.01,0.36-0.04v0.78c-0.24-0.04-0.59-0.06-1.09-0.06h-2.38v3.19h2.93
		c0.53,0,0.88-0.02,1.08-0.06v0.77h-5.21c0.05-0.24,0.09-0.76,0.09-1.22v-5.6C49.44,205.66,49.39,205.14,49.35,204.89z"/>
	<path fill="#656263" d="M56.58,204.89h2.47c1.8,0,2.56,0.12,3.26,0.51c0.38,0.22,0.71,0.49,0.97,0.82
		c0.59,0.72,0.86,1.57,0.86,2.54c0,1.53-0.73,2.89-1.89,3.55c-0.74,0.41-1.76,0.61-3.12,0.61h-2.55c0.05-0.24,0.09-0.76,0.09-1.22
		v-5.58C56.67,205.66,56.62,205.14,56.58,204.89z M57.79,212.21h1.3c1.85,0,2.68-0.3,3.3-1.21c0.41-0.59,0.59-1.23,0.59-2.06
		c0-1.32-0.45-2.35-1.27-2.86c-0.58-0.36-1.24-0.49-2.49-0.49h-1.44V212.21z"/>
	<path fill="#656263" d="M69.01,212.25l0.53-0.67c0.68,0.49,1.52,0.76,2.41,0.76c1.23,0,2-0.65,2-1.68c0-1.14-0.8-1.66-2.62-1.66
		c-0.26,0-0.35,0.01-0.59,0.02v-0.65c0.68-0.01,1.27-0.06,1.7-0.15c0.82-0.16,1.36-0.75,1.36-1.46c0-0.88-0.68-1.37-1.88-1.37
		c-0.64,0-1.32,0.13-1.83,0.35l-0.3-0.74l0.09-0.02c0.85-0.22,1.46-0.29,2.18-0.29c1.83,0,2.91,0.71,2.91,1.91
		c0,1.04-0.83,1.82-2.17,2.06c1.62,0.21,2.37,0.83,2.37,1.97c0,1.43-1.3,2.43-3.15,2.43C70.98,213.07,69.98,212.81,69.01,212.25z"/>
	<path fill="#656263" d="M78.08,204.89h2.47c1.8,0,2.56,0.12,3.26,0.51c0.38,0.22,0.71,0.49,0.97,0.82
		c0.59,0.72,0.86,1.57,0.86,2.54c0,1.53-0.73,2.89-1.89,3.55c-0.74,0.41-1.76,0.61-3.12,0.61h-2.55c0.04-0.24,0.09-0.76,0.09-1.22
		v-5.58C78.17,205.66,78.13,205.14,78.08,204.89z M79.3,212.21h1.3c1.85,0,2.68-0.3,3.3-1.21c0.41-0.59,0.59-1.23,0.59-2.06
		c0-1.32-0.45-2.35-1.27-2.86c-0.58-0.36-1.24-0.49-2.49-0.49H79.3V212.21z"/>
	<path fill="#656263" d="M91.53,204.89h2.36c1.12,0,1.65,0.07,2.17,0.3c0.74,0.31,1.15,0.95,1.15,1.77c0,0.83-0.44,1.53-1.2,1.87
		c-0.62,0.28-1.3,0.38-2.44,0.38h-0.83v2.49c0,0.47,0.03,0.9,0.09,1.22h-1.3c0.04-0.25,0.09-0.75,0.09-1.22v-5.61
		C91.62,205.65,91.58,205.14,91.53,204.89z M92.75,208.54h0.88c0.91,0,1.39-0.1,1.8-0.35c0.42-0.26,0.64-0.66,0.64-1.19
		c0-1.08-0.62-1.44-2.52-1.44c-0.18,0-0.41,0.01-0.7,0.01h-0.11V208.54z"/>
	<path fill="#656263" d="M98.77,204.89h2.27c2.23,0,3.38,0.66,3.38,1.93c0,0.93-0.76,1.63-2.06,1.87c0.96,0.12,1.29,0.45,1.77,1.71
		l0.52,1.38l0.12,0.26l0.12,0.35c0.08,0.18,0.12,0.29,0.26,0.53h-1.32c0-0.14-0.01-0.18-0.07-0.36l-0.09-0.28l-0.11-0.29l-0.49-1.35
		c-0.3-0.81-0.5-1.13-0.8-1.34c-0.3-0.2-0.73-0.29-1.44-0.29h-0.85v2.68c0,0.47,0.03,0.9,0.09,1.22h-1.3
		c0.04-0.25,0.09-0.75,0.09-1.22v-5.61C98.86,205.65,98.81,205.14,98.77,204.89z M99.98,208.34h1.06c1.43,0,2.23-0.53,2.23-1.46
		c0-1-0.64-1.34-2.53-1.34c-0.2,0-0.41,0-0.62,0.01h-0.14V208.34z"/>
	<path fill="#656263" d="M106.82,204.89h1.3c-0.06,0.31-0.09,0.75-0.09,1.22v5.61c0,0.46,0.03,0.89,0.09,1.2h-1.3
		c0.04-0.25,0.09-0.75,0.09-1.2v-5.61C106.91,205.65,106.86,205.14,106.82,204.89z"/>
	<path fill="#656263" d="M110.72,204.89h1.59l4.53,6.95v-5.73c0-0.46-0.04-0.9-0.09-1.22h1.14c-0.06,0.26-0.09,0.75-0.09,1.22v6.81
		h-1.36l-4.67-7.11v5.91c0,0.47,0.05,0.95,0.11,1.2h-1.15c0.06-0.25,0.09-0.75,0.09-1.2v-5.61
		C110.81,205.65,110.78,205.14,110.72,204.89z"/>
	<path fill="#656263" d="M121.94,205.57h-1.8c-0.67,0-0.97,0-1.23,0.04v-0.72h7.17v0.72l-0.12-0.01c-0.27-0.01-0.71-0.02-1.11-0.02
		h-1.79v6.14c0,0.46,0.03,0.9,0.09,1.2h-1.3c0.06-0.3,0.09-0.75,0.09-1.2V205.57z"/>
</g>
<path fill="#656263" d="M127.2,204.89h1.3c-0.06,0.31-0.09,0.75-0.09,1.22v5.61c0,0.46,0.03,0.89,0.09,1.2h-1.3
	c0.04-0.25,0.09-0.75,0.09-1.2v-5.61C127.29,205.65,127.25,205.14,127.2,204.89z"/>
<path fill="#656263" d="M131.1,204.89h1.59l4.53,6.95v-5.73c0-0.46-0.04-0.9-0.09-1.22h1.14c-0.06,0.26-0.09,0.75-0.09,1.22v6.81
	h-1.36l-4.67-7.11v5.91c0,0.47,0.05,0.95,0.11,1.2h-1.15c0.06-0.25,0.09-0.75,0.09-1.2v-5.61
	C131.19,205.65,131.16,205.14,131.1,204.89z"/>
<path fill="#656263" d="M147.34,204.97l-0.29,0.81c-0.61-0.24-1.61-0.4-2.49-0.4c-2.02,0-3.24,1.3-3.24,3.43
	c0,2.13,1.11,3.5,2.82,3.5c0.76,0,1.73-0.25,2.4-0.61v-1.53c0-0.59-0.03-0.95-0.11-1.2h1.3c-0.05,0.24-0.09,0.75-0.09,1.2v1.82
	c-0.52,0.35-1.42,0.72-2.17,0.9c-0.47,0.12-1.02,0.18-1.49,0.18c-2.32,0-3.83-1.65-3.83-4.18c0-2.71,1.67-4.2,4.67-4.2
	C145.73,204.7,146.59,204.79,147.34,204.97z"/>
</svg>
